<?xml version="1.0" encoding="UTF-8" standalone="no"?>
<svg
   version="1.1"
   viewBox="-10 0 266 256"
   id="svg1072"
   sodipodi:docname="QUN.svg"
   inkscape:version="1.1 (c68e22c387, 2021-05-23)"
   xmlns:inkscape="http://www.inkscape.org/namespaces/inkscape"
   xmlns:sodipodi="http://sodipodi.sourceforge.net/DTD/sodipodi-0.dtd"
   xmlns="http://www.w3.org/2000/svg"
   xmlns:svg="http://www.w3.org/2000/svg">
  <defs
     id="defs1076" />
  <sodipodi:namedview
     id="namedview1074"
     pagecolor="#ffffff"
     bordercolor="#666666"
     borderopacity="1.0"
     inkscape:pageshadow="2"
     inkscape:pageopacity="0.0"
     inkscape:pagecheckerboard="0"
     showgrid="false"
     inkscape:zoom="3.25"
     inkscape:cx="133.07692"
     inkscape:cy="128.15385"
     inkscape:window-width="1920"
     inkscape:window-height="1017"
     inkscape:window-x="-8"
     inkscape:window-y="-8"
     inkscape:window-maximized="1"
     inkscape:current-layer="svg1072" />
  <path
     fill="currentColor"
     d="M199 19q2 -3 11 5q4 4 -2 8q-4 2 -14 11q-15 14 -46 37q3 0 9 -2q10 -2 20 -5q7 -2 7 -5q0 -4 5 -4q12 -1 17 1q4 6 -2 7q-5 0 -12 3q-4 3 -17 9q-9 4 -15 7q11 5 7 9q-2 2 -2 4q1 0 3 -1q5 -2 8 -5q4 -3 18 -2q4 4 -1 7q-8 -1 -28 9v23q5 -1 17 -3q6 0 8 -1q6 -1 9 -5 q1 -4 11 -1q16 5 26 11q1 4 -3 6q-11 -2 -17 -6q-6 -3 -12 -3q-14 1 -39 6q-1 33 2 66q1 8 2 13q6 5 11 12q3 7 -6 9q-8 -4 -11 -10l-8 -10q-5 -10 8 -14q-1 -13 -3 -38q-2 -17 -2 -26q-13 2 -23 6q-8 5 -19 1q-1 5 -10 4q-10 0 -24 4q0 2 4 5q2 3 1 4q-2 1 -5 0 q-15 -5 -14 -10q-2 -4 3 -7q-1 -1 -1 -4l-3 -12q-18 59 -43 100q-6 5 -2 -1q33 -67 47 -131q-8 3 -21 10q-6 4 -19 2q-3 1 0 -1q24 -10 41 -17q2 -7 5 -22q-12 4 -23 9q-5 2 -11 4q-10 4 -24 2q-3 0 -3 -1t3 -2q16 -3 49 -13q7 -3 10 -4q1 -10 -4 -15q-2 -4 4 -4q6 2 12 5 q4 5 1 7q-2 2 -2 3q2 0 7 -2q5 -1 8 -2l3 -15q0 -2 1 -3q0 -2 -2 -2q-1 -1 -3 0q-34 13 -53 6q-3 -1 0 -2q33 -1 51 -11q6 -5 12 -1q3 3 8 6q3 3 5 3q2 3 2 5t-3 2q-8 3 -10 9q15 -6 22 -3q7 -6 8 -17q0 -2 1 -2q2 -1 3 1v5l1 3q0 3 1 3q2 0 5 -3q21 -15 33 -18q5 0 12 -6z M188 27q-39 21 -43 37q-4 6 -7 1q-1 -1 -2 -3t-1 -4q-3 1 -7 1q-12 1 -17 3q-2 2 -3 4q-8 14 -14 20q16 -4 20 -1q1 4 -3 5q-18 1 -33 8q-3 3 -9 25q1 3 3 7q17 -5 30 -11q6 -5 19 6q4 4 -1 7q-8 3 -15 13q7 0 11 1q3 0 5 -1q24 -7 36 -9q0 -3 -1 -13v-9q-11 5 -28 4 q-2 0 -2 -1t2 -2q15 -3 27 -8q-1 -3 -1 -6q-1 -5 -1 -7q-1 -3 -4 -4q-2 0 -3 -1v-1q-15 6 -27 6q-3 0 -3 -1t3 -2q12 -4 27 -16q19 -16 46 -44q2 -2 1 -4q-2 -2 -5 0zM100 64q-4 2 -8 3q-5 1 -8 2q-2 4 -4 13q-2 7 -2 10q12 -3 22 -28zM170 79q-5 2 -13 5q-4 2 -8 3q1 1 4 2 q2 1 4 1q2 -2 8 -5q4 -2 6 -4q3 -3 -1 -2zM103 123q-17 9 -31 10q4 14 8 20q4 -2 14 -5q1 0 3 -1q10 -13 12 -19q-1 -6 -6 -5z"
     id="path1070"
     style="fill:none;stroke:#ec0000;stroke-opacity:1" />
  <path
     style="fill:none;stroke:#000000;stroke-width:1px;stroke-linecap:butt;stroke-linejoin:miter;stroke-opacity:1"
     d="M 41.384615,47.692308 119.53846,30.153846 85.076923,100"
     id="path1384" />
  <path
     style="fill:none;stroke:#000000;stroke-width:1px;stroke-linecap:butt;stroke-linejoin:miter;stroke-opacity:1"
     d="M 24.153846,118.46154 85.692308,92 121.69231,84"
     id="path1386" />
  <path
     style="fill:none;stroke:#000000;stroke-width:1px;stroke-linecap:butt;stroke-linejoin:miter;stroke-opacity:1"
     d="M 9.692308,90.461538 142.30769,51.692308"
     id="path1388" />
  <path
     style="fill:none;stroke:#000000;stroke-width:1px;stroke-linecap:butt;stroke-linejoin:miter;stroke-opacity:1"
     d="M 87.230769,46.461538 56.153846,157.84615 18.923077,239.38462"
     id="path1390" />
  <path
     style="fill:none;stroke:#000000;stroke-width:1px;stroke-linecap:butt;stroke-linejoin:miter;stroke-opacity:1"
     d="m 69,123 9.923077,45.92308"
     id="path1392" />
  <path
     style="fill:none;stroke:#000000;stroke-width:1px;stroke-linecap:butt;stroke-linejoin:miter;stroke-opacity:1"
     d="m 72,133 36.15385,-13.61538 6.76923,6.76923 L 96.46154,156"
     id="path1396" />
  <path
     style="fill:none;stroke:#000000;stroke-width:1px;stroke-linecap:butt;stroke-linejoin:miter;stroke-opacity:1"
     d="M 74.307692,157.23077 121,145"
     id="path1398" />
  <path
     style="fill:none;stroke:#000000;stroke-width:1px;stroke-linecap:butt;stroke-linejoin:miter;stroke-opacity:1"
     d="m 145.38462,21.538462 -3.07693,30.153846 68.30769,-33.846154 -91.38461,85.846156"
     id="path1400" />
  <path
     style="fill:none;stroke:#000000;stroke-width:1px;stroke-linecap:butt;stroke-linejoin:miter;stroke-opacity:1"
     d="M 138.92308,84.307692 196.76923,68 146,97.538462"
     id="path1402" />
  <path
     style="fill:none;stroke:#000000;stroke-width:1px;stroke-linecap:butt;stroke-linejoin:miter;stroke-opacity:1"
     d="M 121.07692,117.84615 201.69231,97.230769"
     id="path1404" />
  <path
     style="fill:none;stroke:#000000;stroke-width:1px;stroke-linecap:butt;stroke-linejoin:miter;stroke-opacity:1"
     d="m 116,148 91.23077,-20.92308 32.61538,13.84616"
     id="path1406" />
  <path
     style="fill:none;stroke:#000000;stroke-width:1px;stroke-linecap:butt;stroke-linejoin:miter;stroke-opacity:1"
     d="M 157,90 162.61538,219.38462 182,238.46154"
     id="path1408" />
</svg>
